<svg xmlns="http://www.w3.org/2000/svg" version="1.1" xmlns:xlink="http://www.w3.org/1999/xlink" xmlns:svgjs="http://svgjs.dev/svgjs" width="1920" height="5000" preserveAspectRatio="none" viewBox="0 0 1920 5000"><g mask="url(&quot;#SvgjsMask1011&quot;)" fill="none"><rect width="1920" height="5000" x="0" y="0" fill="rgba(62, 53, 78, 1)"></rect><path d="M960 3197.75C779.17 3197.75 588.39 3285.66 588.39 3360C588.39 3432.24 777.69 3490.91 960 3490.91C1100.64 3490.91 1234.29 3431.55 1234.29 3360C1234.29 3284.97 1102.12 3197.75 960 3197.75" stroke="rgba(225, 172, 80, 1)" stroke-width="2"></path><path d="M1440 3556.36C1331.92 3556.36 1327.52 3688.51 1301.33 3840C1261.52 4070.33 1316.72 4080.44 1308 4320C1299.25 4560.44 1224.68 4578.67 1266.38 4800C1290.68 4928.94 1354.3 5020.54 1440 5020.54C1524.38 5020.54 1570.18 4927.79 1606.53 4800C1669.81 4577.52 1576.66 4547.78 1639.25 4320C1708.56 4067.78 1920.98 4034.07 1870.34 3840C1821.35 3652.25 1616.43 3556.36 1440 3556.36" stroke="rgba(225, 172, 80, 1)" stroke-width="2"></path><path d="M0 305.45C40.69 148.51 8.95 73.5 124.44 0C248.95 -79.23 302.22 0 480 0C606.32 0 732.63 -58.18 732.63 0C732.63 89.51 630.36 178.26 480 295.38C322.23 418.26 293.99 380.79 116.36 480C53.99 514.84 36.75 563.48 0 563.48C-21.43 563.48 0 521.74 0 480C0 392.73 -21.53 388.51 0 305.45" stroke="rgba(225, 172, 80, 1)" stroke-width="2"></path><path d="M1537.78 960C1717.81 799.51 1801.76 660.87 1920 660.87C1992.87 660.87 1920 810.43 1920 960C1920 1121.25 1975.41 1147.94 1920 1282.5C1876.58 1387.94 1782.93 1334.14 1722.35 1440C1600.53 1652.89 1581.4 1674.22 1555.2 1920C1530.23 2154.22 1515.83 2204.2 1620 2400C1698.23 2547.05 1834.48 2468.88 1920 2605.71C1984.48 2708.88 1920 2742.85 1920 2880C1920 3120 1920 3120 1920 3360C1920 3404.44 1948.88 3448.89 1920 3448.89C1848.88 3448.89 1823.51 3394.26 1720 3360C1583.51 3314.82 1571.33 3347.24 1440 3290C1191.33 3181.61 1215.04 3109.93 960 3028.73C735.04 2957.11 715.9 2961.92 480 2984.35C235.9 3007.56 162.04 3155.23 0 3120C-77.96 3103.05 0 3000 0 2880C0 2640 0 2640 0 2400C0 2284.05 -71.38 2241.02 0 2168.09C163.52 2001.02 459.67 2084.96 469.79 1920C482 1720.91 41.74 1636.78 44.65 1440C46.84 1291.61 250.89 1294.18 480 1229.66C708.56 1165.29 721.65 1217.2 960 1182.22C1201.65 1146.76 1222.9 1172.28 1440 1088.78C1511.79 1061.17 1477.81 1013.47 1537.78 960" stroke="rgba(225, 172, 80, 1)" stroke-width="2"></path><path d="M960 1718.4C739.44 1718.4 533.66 1761.75 501.82 1920C465.09 2102.55 642.44 2181.9 822.86 2400C871.53 2458.83 895.29 2473.85 960 2473.85C1007.5 2473.85 1020.06 2449.35 1047.27 2400C1172.78 2172.42 1291.21 2121.17 1265.45 1920C1247.57 1780.37 1121.26 1718.4 960 1718.4" stroke="rgba(225, 172, 80, 1)" stroke-width="2"></path><path d="M223.45 3840C296.1 3663.4 314.77 3584.05 480 3536.33C683.05 3477.69 746.2 3532.9 960 3627.27C1090.2 3684.74 1130.12 3707.48 1168 3840C1229.12 4053.85 1196.36 4085.35 1158 4320C1117.89 4565.35 1085.24 4560.22 1011.06 4800C986.24 4880.22 1027.05 4923.45 960 4960C761.52 5068.21 698.97 4986.99 480 5089.52C357.27 5146.99 397.05 5232.2 276.61 5280C157.05 5327.44 50.56 5367.74 0 5280C-87.74 5127.74 0 5040 0 4800C0 4670 -38.61 4657.6 0 4540C40.19 4417.6 117.57 4445.44 157.61 4320C229.29 4095.44 134.91 4055.23 223.45 3840" stroke="rgba(225, 172, 80, 1)" stroke-width="2"></path><path d="M1865.66 4320C1872.35 4263.17 1905.58 4217.14 1920 4217.14C1932.75 4217.14 1920 4268.57 1920 4320C1920 4560 1920 4560 1920 4800C1920 4898.83 1936.66 4997.65 1920 4997.65C1902.37 4997.65 1859.67 4902.82 1851.43 4800C1832.5 4563.99 1838.06 4554.6 1865.66 4320" stroke="rgba(225, 172, 80, 1)" stroke-width="2"></path><path d="M480 110.77C418.05 110.77 346.67 31.31 346.67 0C346.67 -24.08 413.34 0 480 0C527.37 0 574.74 -21.82 574.74 0C574.74 33.57 532.09 110.77 480 110.77" stroke="rgba(225, 172, 80, 1)" stroke-width="2"></path><path d="M1760 960C1760 895.92 1870.5 834.78 1920 834.78C1950.5 834.78 1920 897.39 1920 960C1920 1027.5 1951.36 1095 1920 1095C1871.36 1095 1760 1026.03 1760 960" stroke="rgba(225, 172, 80, 1)" stroke-width="2"></path><path d="M323.72 1440C323.72 1386.53 395.73 1369.2 480 1364.49C713.87 1351.42 719.72 1400.19 960 1404.44C1199.72 1408.68 1212.09 1366.08 1440 1381.46C1475.62 1383.86 1487.06 1406.72 1487.06 1440C1487.06 1502.65 1499.08 1569.03 1440 1573.33C1235.55 1588.23 1197.51 1467.64 960 1478.4C717.51 1489.39 696.07 1629.88 480 1616.84C377.93 1610.68 323.72 1512.7 323.72 1440" stroke="rgba(225, 172, 80, 1)" stroke-width="2"></path><path d="M0 2302.92C97.14 2302.92 261.82 2325.82 261.82 2400C261.82 2494.36 78.12 2640 0 2640C-52.79 2640 0 2520 0 2400C0 2351.46 -33.77 2302.92 0 2302.92" stroke="rgba(225, 172, 80, 1)" stroke-width="2"></path><path d="M1035.79 2880C1035.79 2744.99 1220.71 2571.6 1440 2546.09C1662.81 2520.17 1718.84 2637.2 1920 2777.14C1958.84 2804.16 1920 2828.57 1920 2880C1920 2982.85 1991.77 3061.79 1920 3085.71C1751.77 3141.79 1672.49 3094.09 1440 3040C1230.39 2991.23 1035.79 2991.95 1035.79 2880" stroke="rgba(225, 172, 80, 1)" stroke-width="2"></path><path d="M430.34 3840C440.08 3803.38 443.43 3786.49 480 3781.22C708.26 3748.31 733.11 3739.6 960 3763.64C1010.45 3768.99 1030.31 3789.43 1034.67 3840C1054.31 4067.61 1036.67 4083.05 1008 4320C999.33 4391.62 1001.38 4398.53 960 4457.14C831.93 4638.53 831.83 4650.17 669.09 4800C591.83 4871.13 562.51 4832.58 480 4899.05C264.58 5072.58 285.35 5111.64 73.22 5280C45.35 5302.12 4.85 5311.76 0 5280C-31.76 5071.76 0 5040 0 4800C0 4795 -2.86 4794.08 0 4790C165.5 4554.08 220.15 4577.33 336.72 4320C435.32 4102.33 368.44 4072.77 430.34 3840" stroke="rgba(225, 172, 80, 1)" stroke-width="2"></path></g><defs><mask id="SvgjsMask1011"><rect width="1920" height="5000" fill="#ffffff"></rect></mask></defs></svg>