<svg xmlns="http://www.w3.org/2000/svg" version="1.1" xmlns:xlink="http://www.w3.org/1999/xlink" xmlns:svgjs="http://svgjs.dev/svgjs" width="1920" height="5000" preserveAspectRatio="none" viewBox="0 0 1920 5000"><g mask="url(&quot;#SvgjsMask1012&quot;)" fill="none"><rect width="1920" height="5000" x="0" y="0" fill="rgba(62, 53, 78, 1)"></rect><path d="M440 0C465.33 1.75 454.99 33.1 480 33.1C634.99 33.1 639.72 11.05 800 0C879.72 -5.5 880 0 960 0C1200 0 1200 0 1440 0C1467.69 0 1470.31 -11.09 1495.38 0C1710.31 95.07 1784.24 58.84 1920 212.31C1996.55 298.84 1920 346.15 1920 480C1920 634.66 1999.34 685.19 1920 789.33C1816.49 925.19 1554.29 877.57 1554.29 960C1554.29 1041.27 1819.11 984.31 1920 1116.73C2001.97 1224.31 1920 1278.36 1920 1440C1920 1680 1920 1680 1920 1920C1920 2160 1920 2160 1920 2400C1920 2580 1936.85 2583.1 1920 2760C1913.99 2823.1 1874.29 2824.89 1874.29 2880C1874.29 2907.74 1917.04 2894.61 1920 2925.71C1939.89 3134.61 1920 3142.85 1920 3360C1920 3520 1989.16 3559.88 1920 3680C1850.98 3799.88 1694.48 3712.24 1643.64 3840C1567.14 4032.24 1579.78 4124.91 1665.31 4320C1717.96 4440.09 1859.78 4356.86 1920 4470.36C1987.12 4596.86 1920 4635.18 1920 4800C1920 5040 1920 5040 1920 5280C1920 5280 1920 5280 1920 5280C1680 5280 1680 5280 1440 5280C1200 5280 1200 5280 960 5280C720 5280 720 5280 480 5280C240 5280 120 5400 0 5280C-120 5160 0 5040 0 4800C0 4560 0 4560 0 4320C0 4080 0 4080 0 3840C0 3632 -111.17 3530.64 0 3424C128.83 3300.43 243.28 3409.68 480 3379.59C494.99 3377.68 503.41 3370.86 503.41 3360C503.41 3346.95 491.55 3346.01 480 3331.76C296.99 3106.01 249.42 3130.02 114.29 2880C9.42 2685.96 52.1 2662.47 0 2443.64C-5.04 2422.47 0 2421.82 0 2400C0 2160 0 2160 0 1920C0 1680 0 1680 0 1440C0 1200 0 1200 0 960C0 720 0 720 0 480C0 240 -114.78 125.22 0 0C105.22 -114.78 225.33 -14.8 440 0" stroke="rgba(225, 172, 80, 1)" stroke-width="2"></path><path d="M960 1351.58C905.92 1379.8 886.26 1381.98 873.85 1440C825.46 1666.19 814.85 1684.89 838.4 1920C857.92 2114.89 882.07 2119.56 960 2300C985.72 2359.56 989.82 2367.28 1045.71 2400C1229.82 2507.77 1246.96 2580.98 1440 2580.98C1601.82 2580.98 1755.43 2528.13 1755.43 2400C1755.43 2197.64 1499.89 2179.25 1440 1920C1389.01 1699.25 1533.66 1677.32 1533.66 1440C1533.66 1289.63 1546.75 1161.07 1440 1144.62C1259.92 1116.86 1188.99 1232.11 960 1351.58" stroke="rgba(225, 172, 80, 1)" stroke-width="2"></path><path d="M960 2526.32C890.62 2526.32 813.91 2720.43 813.91 2880C813.91 2960.66 888.89 3006.79 960 3006.79C1026.55 3006.79 1089.23 2958 1089.23 2880C1089.23 2717.77 1028.28 2526.32 960 2526.32" stroke="rgba(225, 172, 80, 1)" stroke-width="2"></path><path d="M480 4637.42C397.94 4637.42 312 4726.76 312 4800C312 4862.83 397.22 4909.57 480 4909.57C557.58 4909.57 632.73 4862.23 632.73 4800C632.73 4726.15 558.3 4637.42 480 4637.42" stroke="rgba(225, 172, 80, 1)" stroke-width="2"></path><path d="M190 0C349.5 79.75 311.85 203.47 480 240C696.85 287.11 721.36 159.62 960 167.27C1201.36 175.01 1204.55 203.12 1440 270.77C1684.55 341.03 1696.2 345.53 1920 443.08C1936.2 450.14 1920 461.54 1920 480C1920 501.34 1938.47 514.19 1920 522.67C1698.47 624.46 1642.09 564.24 1440 700.54C1317.88 782.9 1377.82 850.85 1271.58 960C1137.82 1097.42 1106.46 1066.22 960 1193.68C830.67 1306.22 778.64 1288.74 720 1440C637.84 1651.9 675.55 1680.28 678.4 1920C681.26 2160.28 761.85 2167.03 731.43 2400C699.17 2647.03 654.43 2646.6 553.04 2880C528.71 2936.01 517.61 2978.82 480 2978.82C441.09 2978.82 423.17 2938.42 400 2880C308.38 2649.01 300.34 2645.01 250.43 2400C202.56 2165.01 278.51 2139.7 204.44 1920C153.29 1768.27 61.87 1802.41 0 1657.14C-40.35 1562.41 0 1548.57 0 1440C0 1200 0 1200 0 960C0 720 0 720 0 480C0 240 -68.06 171.94 0 0C26.94 -68.06 109.5 -40.25 190 0" stroke="rgba(225, 172, 80, 1)" stroke-width="2"></path><path d="M480 944C472.26 944 463.45 952.58 463.45 960C463.45 966.58 472.12 972 480 972C486.71 972 492.63 966.45 492.63 960C492.63 952.45 486.85 944 480 944" stroke="rgba(225, 172, 80, 1)" stroke-width="2"></path><path d="M1826.34 1440C1846.91 1384.6 1891.48 1361.63 1920 1361.63C1938.31 1361.63 1920 1400.82 1920 1440C1920 1680 1920 1680 1920 1920C1920 2062.5 1966.34 2205 1920 2205C1862.7 2205 1732.24 2079.39 1712.73 1920C1685.41 1696.89 1743.27 1663.78 1826.34 1440" stroke="rgba(225, 172, 80, 1)" stroke-width="2"></path><path d="M1320 2880C1377.17 2825.75 1377.37 2777.7 1440 2777.7C1511.65 2777.7 1521.87 2819.73 1588.57 2880C1761.87 3036.6 1794.17 3029.19 1920 3211.43C1959.88 3269.19 1920 3285.72 1920 3360C1920 3414.73 1960.29 3439.03 1920 3469.47C1720.29 3620.37 1690.12 3621.93 1440 3722.67C1230.12 3807.2 1156.42 3723.55 1000 3840C916.42 3902.22 977.12 3959.59 960 4080C943 4199.59 1013.44 4258.08 931.76 4320C773.44 4440.02 700.61 4443.87 480 4443.87C342.31 4443.87 330.55 4405.33 215.17 4320C90.55 4227.84 60.16 4223.1 0 4088.89C-47.42 3983.1 0 3964.44 0 3840C0 3765.34 -56.54 3716.06 0 3690.67C183.46 3608.3 264.91 3713.83 480 3624.49C662.96 3548.5 636.39 3490.19 796.1 3360C876.39 3294.55 883.72 3303.1 960 3233.21C1145.67 3063.1 1137.17 3053.51 1320 2880" stroke="rgba(225, 172, 80, 1)" stroke-width="2"></path><path d="M0 4551.11C29.29 4551.11 20.04 4706.33 112 4800C260.04 4950.78 298.66 5040 480 5040C649.94 5040 703.7 4960.99 814.55 4800C943.7 4612.42 803.71 4454.24 960 4342.86C1116.43 4231.38 1215.45 4290.65 1440 4354.29C1695.45 4426.69 1740.74 4448.48 1920 4614.94C1980.74 4671.34 1920 4707.47 1920 4800C1920 4934.74 2006.29 5020.7 1920 5069.47C1766.29 5156.35 1666.81 5017.04 1440 5071.3C1226.81 5122.3 1243.85 5191.37 1040 5280C1003.85 5295.72 1000 5280 960 5280C720 5280 720 5280 480 5280C240 5280 120 5400 0 5280C-120 5160 0 5040 0 4800C0 4675.56 -26.71 4551.11 0 4551.11" stroke="rgba(225, 172, 80, 1)" stroke-width="2"></path><path d="M160 480C160 455.9 321.44 472.85 480 446.9C721.44 407.39 725.11 339.52 960 349.09C1131.26 356.07 1272.03 357.41 1292.31 480C1322.56 662.87 1195.36 735.36 1061.05 960C1029.21 1013.26 1013.94 1035.79 960 1035.79C887.63 1035.79 866.57 1019.58 808.42 960C626.57 773.68 680.66 692.54 480 544C356.45 452.54 160 504.45 160 480" stroke="rgba(225, 172, 80, 1)" stroke-width="2"></path><path d="M0 672C12.51 672 49.66 817.62 49.66 960C49.66 1041.62 12.7 1120 0 1120C-12.13 1120 0 1040 0 960C0 816 -12.32 672 0 672" stroke="rgba(225, 172, 80, 1)" stroke-width="2"></path><path d="M144 1440C154.74 1309.5 339.53 1272 480 1272C550.6 1272 560.75 1348.86 566.15 1440C579.95 1672.86 544.22 1680.21 518.4 1920C501.15 2080.21 502.86 2240 480 2240C456.99 2240 488.5 2067.22 426.67 1920C320.5 1667.22 128.07 1633.5 144 1440" stroke="rgba(225, 172, 80, 1)" stroke-width="2"></path><path d="M1224 3360C1224 3275.84 1333.25 3154.29 1440 3154.29C1544.11 3154.29 1645.71 3275.27 1645.71 3360C1645.71 3426.12 1543.3 3456 1440 3456C1332.44 3456 1224 3426.69 1224 3360" stroke="rgba(225, 172, 80, 1)" stroke-width="2"></path><path d="M1360 4800C1360 4793.06 1399.27 4785.8 1440 4782.86C1679.27 4765.56 1698.65 4751.62 1920 4759.52C1938.65 4760.19 1920 4779.76 1920 4800C1920 4829.48 1946.13 4858.38 1920 4858.95C1706.13 4863.6 1679.89 4835.68 1440 4810.43C1399.89 4806.21 1360 4806.84 1360 4800" stroke="rgba(225, 172, 80, 1)" stroke-width="2"></path><path d="M192 5280C192 5251.68 337.77 5170.43 480 5170.43C601.77 5170.43 720 5251.31 720 5280C720 5306.1 600 5280 480 5280C336 5280 192 5306.47 192 5280" stroke="rgba(225, 172, 80, 1)" stroke-width="2"></path></g><defs><mask id="SvgjsMask1012"><rect width="1920" height="5000" fill="#ffffff"></rect></mask></defs></svg>