<?xml version="1.0" standalone="no"?>
<!DOCTYPE svg PUBLIC "-//W3C//DTD SVG 20010904//EN"
 "http://www.w3.org/TR/2001/REC-SVG-20010904/DTD/svg10.dtd">
<svg version="1.0" xmlns="http://www.w3.org/2000/svg"
 width="805.000000pt" height="804.000000pt" viewBox="0 0 805.000000 804.000000"
 preserveAspectRatio="xMidYMid meet">

<g transform="translate(0.000000,804.000000) scale(0.100000,-0.100000)"
fill="#FFF" stroke="none">
<path d="M3735 8033 c-16 -2 -91 -10 -165 -18 -188 -21 -288 -38 -510 -90
-125 -29 -435 -129 -455 -146 -5 -5 -17 -9 -27 -9 -10 0 -26 -4 -36 -10 -9 -5
-66 -30 -127 -56 -117 -49 -349 -167 -376 -190 -8 -8 -18 -14 -21 -14 -18 0
-371 -230 -393 -256 -5 -6 -28 -25 -51 -41 -22 -15 -62 -46 -88 -68 -26 -22
-57 -48 -69 -58 -203 -169 -493 -482 -638 -687 -22 -30 -47 -66 -58 -80 -29
-39 -134 -201 -155 -240 -11 -19 -32 -57 -47 -85 -26 -45 -113 -220 -174 -350
-26 -55 -105 -258 -125 -320 -7 -22 -18 -56 -25 -75 -7 -19 -18 -53 -24 -75
-6 -22 -19 -71 -30 -110 -39 -144 -73 -308 -101 -497 -13 -91 -39 -470 -40
-578 0 -85 9 -102 48 -89 15 4 54 15 87 23 33 8 87 22 120 31 33 9 89 23 125
30 36 8 119 28 185 45 66 18 138 36 160 41 22 5 69 16 105 24 63 15 125 29
260 60 36 9 91 20 123 25 33 6 84 18 115 26 32 9 107 26 167 39 269 58 413 88
455 95 25 5 65 13 90 19 42 11 91 21 168 36 22 5 40 18 57 43 14 20 25 40 25
44 0 20 171 352 189 368 3 3 17 25 30 50 30 56 183 288 208 315 10 11 33 40
50 64 87 120 280 314 412 416 14 10 28 22 31 25 7 9 100 70 106 70 3 0 14 8
25 19 11 10 65 42 120 70 81 41 110 51 150 51 58 0 121 -28 145 -65 9 -14 20
-24 24 -23 9 3 77 87 131 159 19 27 44 56 55 66 11 10 35 38 54 63 77 101 232
280 270 312 22 19 40 38 40 42 0 10 85 116 145 180 17 18 70 77 120 132 138
153 439 448 543 534 24 19 62 51 86 70 43 35 109 83 201 143 76 51 192 94 274
102 40 4 69 10 64 14 -4 4 -37 20 -73 35 -36 15 -84 36 -108 47 -23 11 -86 35
-140 55 -53 19 -108 40 -122 46 -46 19 -77 29 -265 77 -262 69 -391 91 -700
121 -94 9 -554 11 -620 3z"/>
<path d="M5942 7553 c70 -143 69 -130 17 -312 -17 -58 -36 -125 -43 -148 -7
-24 -17 -48 -24 -55 -7 -7 -12 -26 -12 -43 0 -17 -4 -35 -8 -41 -4 -5 -16 -36
-26 -69 -10 -33 -24 -76 -31 -95 -8 -19 -19 -53 -26 -75 -6 -22 -16 -51 -22
-65 -5 -14 -34 -98 -63 -187 -30 -90 -58 -171 -63 -180 -5 -10 -19 -47 -31
-83 -12 -36 -25 -74 -30 -85 -7 -19 -18 -51 -77 -235 -14 -41 -33 -97 -44
-125 -28 -74 -99 -275 -109 -310 -5 -16 -31 -95 -59 -175 -27 -80 -66 -192
-86 -249 -19 -57 -40 -110 -45 -117 -6 -6 -10 -16 -8 -20 1 -5 -6 -35 -16 -67
-11 -34 -15 -61 -10 -66 5 -5 50 -14 99 -19 151 -17 232 -46 282 -100 111
-120 35 -302 -129 -309 -51 -2 -64 1 -111 31 -45 29 -101 52 -209 85 -38 12
-54 -13 -93 -144 -10 -33 -35 -112 -56 -175 -20 -63 -56 -176 -79 -250 -23
-74 -45 -146 -50 -160 -5 -14 -23 -72 -40 -130 -17 -58 -56 -184 -87 -280 -70
-224 -72 -228 -93 -313 -10 -40 -23 -85 -29 -102 -5 -16 -17 -59 -27 -95 -9
-36 -22 -83 -29 -105 -7 -22 -18 -60 -25 -85 -7 -25 -15 -52 -18 -60 -3 -8
-11 -40 -18 -70 -7 -30 -18 -73 -24 -95 -6 -22 -18 -68 -26 -101 -7 -34 -21
-88 -30 -120 -9 -33 -22 -86 -29 -119 -7 -33 -20 -89 -29 -125 -8 -36 -22 -96
-31 -135 -8 -38 -21 -92 -29 -120 -8 -27 -26 -111 -41 -185 -14 -74 -31 -152
-36 -173 -6 -21 -17 -80 -25 -130 -9 -51 -19 -114 -24 -142 -25 -133 -41 -237
-50 -305 -5 -41 -16 -122 -25 -180 -8 -58 -18 -203 -22 -322 l-6 -218 64 0
c35 0 156 7 269 15 188 13 252 21 455 55 67 11 237 51 300 70 17 5 57 17 90
26 190 52 457 156 650 255 237 120 353 190 600 363 40 28 235 186 261 211 11
11 40 36 63 55 120 100 433 447 531 590 13 19 27 37 31 40 4 3 21 29 39 59 17
30 50 80 73 110 43 58 46 62 92 147 14 27 36 65 47 84 36 60 168 324 168 335
0 6 11 33 24 61 13 27 37 90 54 139 17 50 35 104 41 120 55 160 100 329 130
490 7 33 18 89 26 125 8 36 17 99 20 140 3 41 10 98 15 125 24 132 18 684 -10
900 -45 351 -137 701 -269 1030 -32 79 -133 296 -151 325 -5 8 -20 35 -32 60
-26 51 -143 247 -161 270 -7 8 -21 31 -31 50 -11 19 -38 60 -60 90 -23 30 -52
72 -64 92 -13 20 -26 38 -30 40 -4 2 -28 30 -54 63 -59 78 -264 300 -359 390
-145 136 -199 185 -204 185 -3 0 -18 12 -33 28 -15 15 -52 44 -82 65 -30 21
-75 54 -100 73 -144 108 -462 305 -448 277z"/>
<path d="M5565 7205 c-66 -25 -171 -80 -196 -101 -8 -8 -19 -14 -22 -14 -4 0
-33 -20 -65 -46 -31 -25 -84 -66 -116 -92 -95 -75 -260 -228 -364 -337 -37
-38 -102 -105 -144 -147 -43 -43 -78 -81 -78 -85 0 -5 -80 -96 -205 -231 -22
-24 -46 -53 -55 -66 -8 -12 -21 -29 -28 -37 -10 -12 -55 -67 -201 -244 -25
-31 -94 -117 -111 -139 -8 -10 -26 -33 -40 -50 -14 -17 -48 -60 -75 -96 -27
-36 -53 -67 -58 -69 -4 -1 -20 -22 -34 -45 -14 -22 -45 -66 -69 -96 -46 -59
-232 -311 -299 -406 -22 -31 -45 -63 -52 -69 -7 -7 -20 -26 -30 -43 -10 -16
-49 -73 -86 -127 -38 -53 -67 -98 -65 -100 1 -2 86 10 188 26 385 62 397 63
615 90 263 33 365 43 791 75 l70 5 34 102 c18 56 39 113 46 127 7 14 27 70 45
125 17 55 38 118 46 140 9 22 19 49 23 60 4 11 12 31 18 45 6 14 20 57 33 95
12 39 25 74 30 79 5 6 9 18 9 29 0 10 14 53 31 95 17 43 32 82 33 87 17 69 20
75 56 160 5 11 30 83 55 160 26 77 51 149 55 160 17 38 102 280 141 400 21 66
48 147 60 180 11 33 23 71 26 85 2 14 7 32 11 40 16 41 63 281 56 291 -7 12
-8 11 -79 -16z"/>
<path d="M3359 5337 c-154 -138 -269 -268 -378 -427 -25 -36 -49 -69 -53 -75
-17 -20 -120 -189 -153 -252 -19 -36 -41 -73 -47 -81 -11 -13 -8 -15 26 -9 21
3 39 7 41 9 32 44 143 204 150 217 21 37 170 238 186 251 3 3 29 39 57 80 57
83 147 202 224 298 28 34 48 65 46 68 -3 2 -48 -33 -99 -79z"/>
<path d="M4370 4469 c-200 -13 -397 -30 -445 -39 -27 -5 -93 -14 -145 -20 -96
-11 -240 -32 -340 -50 -30 -6 -89 -14 -130 -20 -41 -5 -133 -20 -204 -33 -137
-27 -150 -34 -188 -107 -7 -14 -43 -70 -79 -125 -185 -280 -376 -593 -474
-775 -84 -155 -220 -436 -245 -505 -12 -33 -44 -123 -71 -200 -43 -125 -53
-144 -90 -177 -61 -53 -139 -64 -208 -28 -41 20 -81 63 -81 86 0 8 -4 14 -9
14 -27 0 -16 130 18 204 20 45 50 138 81 259 11 43 24 86 29 95 5 9 16 51 26
92 10 41 21 82 26 90 4 8 12 35 18 60 24 94 201 644 221 685 5 11 18 44 29 73
l19 52 -30 0 c-16 0 -37 -4 -47 -10 -10 -5 -43 -14 -72 -19 -61 -11 -119 -25
-299 -70 -69 -18 -186 -47 -260 -66 -74 -19 -187 -48 -250 -65 -63 -17 -131
-35 -150 -39 -19 -5 -71 -20 -115 -35 -44 -14 -86 -26 -94 -26 -8 0 -39 -9
-70 -19 -31 -11 -108 -35 -171 -54 -217 -66 -280 -89 -395 -142 -44 -21 -91
-41 -105 -45 -24 -6 -25 -10 -22 -66 2 -32 8 -79 13 -104 5 -25 13 -67 19 -95
28 -146 90 -375 141 -525 67 -194 280 -661 325 -711 8 -8 14 -19 14 -23 0 -4
18 -34 40 -66 22 -32 40 -64 40 -69 0 -6 4 -11 8 -11 4 0 24 -28 44 -63 21
-34 46 -72 58 -84 11 -12 20 -25 20 -28 0 -6 152 -195 232 -289 43 -51 264
-275 348 -352 73 -68 258 -215 365 -290 39 -27 75 -52 80 -56 19 -15 80 -53
153 -96 182 -106 212 -123 287 -159 44 -21 82 -41 85 -44 3 -3 14 -8 25 -12
11 -3 70 -27 130 -53 146 -63 458 -164 623 -203 249 -59 548 -101 648 -92 8 1
13 54 17 169 6 185 32 550 46 645 5 34 12 89 16 122 4 33 11 83 17 110 5 28
13 77 18 110 10 71 34 202 54 300 8 39 18 84 21 100 3 17 13 64 22 105 8 41
26 122 39 180 24 104 47 213 65 300 5 25 16 68 24 95 7 28 28 109 45 180 17
72 38 155 46 185 8 30 20 73 25 95 6 22 16 60 24 85 7 25 18 63 23 85 6 22 23
78 38 125 15 47 30 101 34 120 8 36 61 221 107 370 70 230 85 276 94 292 5 10
9 24 9 33 0 8 12 50 26 92 15 43 37 112 50 153 13 41 48 147 78 234 30 88 53
163 50 168 -5 8 -212 7 -364 -3z"/>
</g>
</svg>
